<svg xmlns="http://www.w3.org/2000/svg" xmlns:xlink="http://www.w3.org/1999/xlink" width="50" zoomAndPan="magnify" viewBox="0 0 37.5 37.499999" height="50" preserveAspectRatio="xMidYMid meet" version="1.0"><defs><clipPath id="d563d2f6e7"><path d="M 2.175781 2.296875 L 34.742188 2.296875 L 34.742188 34.863281 L 2.175781 34.863281 Z M 2.175781 2.296875 " clip-rule="nonzero"/></clipPath><clipPath id="ea0e18acd5"><path d="M 3.699219 15.535156 L 34.785156 15.535156 L 34.785156 28 L 3.699219 28 Z M 3.699219 15.535156 " clip-rule="nonzero"/></clipPath></defs><g clip-path="url(#d563d2f6e7)"><path fill="#0d0d0e" d="M 33.308594 15.484375 L 32.613281 9.957031 L 31.78125 3.347656 C 31.699219 2.675781 30.882812 2.386719 30.394531 2.855469 L 25.585938 7.464844 L 24.429688 8.574219 C 22.589844 7.980469 20.589844 7.652344 18.5 7.652344 C 16.429688 7.652344 14.453125 7.96875 12.632812 8.550781 L 11.410156 7.378906 L 6.601562 2.769531 C 6.113281 2.300781 5.296875 2.589844 5.214844 3.261719 L 4.382812 9.871094 L 3.671875 15.507812 C 2.710938 17.234375 2.175781 19.152344 2.175781 21.175781 C 2.175781 28.644531 9.484375 34.699219 18.5 34.699219 C 27.511719 34.699219 34.820312 28.644531 34.820312 21.175781 C 34.820312 19.140625 34.28125 17.214844 33.308594 15.484375 Z M 33.308594 15.484375 " fill-opacity="1" fill-rule="nonzero"/></g><g clip-path="url(#ea0e18acd5)"><path fill="#ffffff" d="M 34.742188 19.371094 C 34.722656 19.539062 34.582031 19.664062 34.414062 19.664062 C 34.402344 19.664062 34.390625 19.664062 34.378906 19.660156 C 32.507812 19.453125 31.210938 19.367188 29.03125 19.121094 C 28.980469 20.039062 28.457031 27.921875 21.601562 27.179688 C 15.1875 26.484375 16.136719 18.792969 16.355469 17.621094 C 9.605469 16.84375 4.164062 16.214844 4.0625 16.203125 C 3.882812 16.183594 3.753906 16.019531 3.773438 15.839844 C 3.792969 15.660156 3.957031 15.535156 4.136719 15.550781 C 4.328125 15.574219 23.265625 17.765625 34.453125 19.007812 C 34.632812 19.027344 34.761719 19.191406 34.742188 19.371094 Z M 34.742188 19.371094 C 34.722656 19.539062 34.582031 19.664062 34.414062 19.664062 C 34.402344 19.664062 34.390625 19.664062 34.378906 19.660156 C 32.507812 19.453125 31.210938 19.367188 29.03125 19.121094 C 28.980469 20.039062 28.457031 27.921875 21.601562 27.179688 C 15.1875 26.484375 16.136719 18.792969 16.355469 17.621094 C 9.605469 16.84375 4.164062 16.214844 4.0625 16.203125 C 3.882812 16.183594 3.753906 16.019531 3.773438 15.839844 C 3.792969 15.660156 3.957031 15.535156 4.136719 15.550781 C 4.328125 15.574219 23.265625 17.765625 34.453125 19.007812 C 34.632812 19.027344 34.761719 19.191406 34.742188 19.371094 Z M 34.742188 19.371094 " fill-opacity="1" fill-rule="nonzero"/></g></svg>